<svg xmlns="http://www.w3.org/2000/svg" viewBox="0 0 77.05 61.7"><defs><style>.cls-1{fill:#fff;}</style></defs><g id="Layer_2" data-name="Layer 2"><g id="Layer_1-2" data-name="Layer 1"><path class="cls-1" d="M74.22,50.07a22.5,22.5,0,0,0,2.83-11c0-12.13-11-22.77-23.61-22.85A28,28,0,1,0,3.6,41.77L.19,53a1.8,1.8,0,0,0,.39,1.72,1.78,1.78,0,0,0,1.67.56l12.63-2.47a28,28,0,0,0,22.87,1.52,22.54,22.54,0,0,0,27.19,4.84l9.88,1.94a1.79,1.79,0,0,0,2.06-2.29Zm-58.17-.76a1.81,1.81,0,0,0-.88-.23,2,2,0,0,0-.34,0l-10.33,2,2.76-9.07a1.76,1.76,0,0,0-.18-1.45,24.46,24.46,0,1,1,9,8.69Zm54.52,1.06,2,6.59L65,55.48a1.81,1.81,0,0,0-1.23.2,19,19,0,0,1-22.55-3A28.06,28.06,0,0,0,56,28a27.73,27.73,0,0,0-1.2-8.09c10.09.81,18.64,9.43,18.64,19.2a19,19,0,0,1-2.72,9.79A1.78,1.78,0,0,0,70.57,50.37Z"/></g></g></svg>