<svg xmlns="http://www.w3.org/2000/svg" viewBox="0 0 58.94 58.94"><defs><style>.cls-1{fill:#003e2a;}</style></defs><g id="Layer_2" data-name="Layer 2"><g id="Layer_1-2" data-name="Layer 1"><path class="cls-1" d="M29.47,58.94A29.47,29.47,0,1,1,58.94,29.47,29.5,29.5,0,0,1,29.47,58.94Zm0-58.4A28.93,28.93,0,1,0,58.4,29.47,29,29,0,0,0,29.47.54Z"/><path class="cls-1" d="M25.52,45.12h6.31V29.34h4.39l.47-5.29H31.83V21c0-1.24.25-1.73,1.45-1.73h3.41V13.82H32.33c-4.69,0-6.81,2.07-6.81,6v4.21H22.25V29.4h3.27Z"/></g></g></svg>