<svg xmlns="http://www.w3.org/2000/svg" viewBox="0 0 58.94 58.94">
    <defs>
        <style>.cls-1{fill:#003e2a;}</style>
    </defs>
    <g id="Layer_2" data-name="Layer 2">
        <g id="Layer_1-2" data-name="Layer 1">
            <path class="cls-1" d="M29.47,58.94A29.47,29.47,0,1,1,58.94,29.47,29.5,29.5,0,0,1,29.47,58.94Zm0-58.4A28.93,28.93,0,1,0,58.4,29.47,29,29,0,0,0,29.47.54Z" />
            <path class="cls-1" d="M29.47,17.83c3.79,0,4.24,0,5.74.09a7.93,7.93,0,0,1,2.63.48,4.8,4.8,0,0,1,2.7,2.7A7.93,7.93,0,0,1,41,23.73c.07,1.5.09,1.95.09,5.74s0,4.24-.09,5.74a7.93,7.93,0,0,1-.48,2.63,4.8,4.8,0,0,1-2.7,2.7,8.13,8.13,0,0,1-2.63.49c-1.5.06-2,.08-5.74.08s-4.24,0-5.74-.08a8.13,8.13,0,0,1-2.63-.49,4.8,4.8,0,0,1-2.7-2.7,8.13,8.13,0,0,1-.49-2.63c-.06-1.5-.08-2-.08-5.74s0-4.24.08-5.74a8.13,8.13,0,0,1,.49-2.63,4.8,4.8,0,0,1,2.7-2.7,7.93,7.93,0,0,1,2.63-.48c1.5-.07,1.95-.09,5.74-.09m0-2.56c-3.86,0-4.34,0-5.85.09a10.49,10.49,0,0,0-3.45.66A7.31,7.31,0,0,0,16,20.17a10.49,10.49,0,0,0-.66,3.45c-.07,1.51-.09,2-.09,5.85s0,4.34.09,5.85A10.49,10.49,0,0,0,16,38.77a7.31,7.31,0,0,0,4.15,4.15,10.49,10.49,0,0,0,3.45.66c1.51.07,2,.09,5.85.09s4.34,0,5.85-.09a10.54,10.54,0,0,0,3.45-.66,7.31,7.31,0,0,0,4.15-4.15,10.49,10.49,0,0,0,.66-3.45c.07-1.51.08-2,.08-5.85s0-4.34-.08-5.85a10.49,10.49,0,0,0-.66-3.45A7.31,7.31,0,0,0,38.77,16a10.54,10.54,0,0,0-3.45-.66c-1.51-.07-2-.09-5.85-.09" />
            <path class="cls-1" d="M29.47,22.18a7.29,7.29,0,1,0,7.29,7.29,7.29,7.29,0,0,0-7.29-7.29m0,12a4.73,4.73,0,1,1,4.73-4.73,4.73,4.73,0,0,1-4.73,4.73" />
            <path class="cls-1" d="M38.75,21.89a1.71,1.71,0,1,1-1.7-1.7,1.71,1.71,0,0,1,1.7,1.7" />
        </g>
    </g>
</svg>