<svg xmlns="http://www.w3.org/2000/svg" viewBox="0 0 104.22 47.45"><defs><style>.cls-1{fill:#fff;}</style></defs><g id="Layer_2" data-name="Layer 2"><g id="Layer_1-2" data-name="Layer 1"><path class="cls-1" d="M100.69,38.7,98.32,43l-1.14,2.09L95.09,44l-.38-.21c-2.53-1.38-4.54-2.48-6.9-2.48s-4.36,1.1-6.89,2.48c-3,1.64-6.71,3.67-11.56,3.67s-8.56-2-11.55-3.67c-2.53-1.38-4.53-2.48-6.89-2.48s-4.37,1.1-6.9,2.48c-3,1.64-6.71,3.67-11.55,3.67s-8.57-2-11.55-3.67C18.38,42.4,16.38,41.3,14,41.3s-4.37,1.1-6.9,2.48L6.74,44,4.65,45.13,3.51,43,1.14,38.7,0,36.61l2.09-1.14.38-.2c3-1.64,6.7-3.67,11.55-3.67s8.56,2,11.55,3.67c2.53,1.38,4.53,2.48,6.9,2.48s4.36-1.1,6.89-2.48c3-1.64,6.71-3.67,11.55-3.67s8.57,2,11.56,3.67C65,36.65,67,37.75,69.36,37.75s4.37-1.1,6.9-2.48c3-1.64,6.71-3.67,11.55-3.67s8.57,2,11.55,3.67l.38.2,2.09,1.14Z"/><path class="cls-1" d="M100.69,20.3l-2.37,4.34-1.14,2.09-2.09-1.14-.38-.21c-2.53-1.39-4.54-2.48-6.9-2.48S83.45,24,80.92,25.38c-3,1.64-6.71,3.67-11.56,3.67s-8.56-2-11.55-3.67C55.28,24,53.28,22.9,50.92,22.9S46.55,24,44,25.38c-3,1.64-6.71,3.67-11.55,3.67s-8.57-2-11.55-3.67C18.38,24,16.38,22.9,14,22.9S9.65,24,7.12,25.38l-.38.21L4.65,26.73,3.51,24.64,1.14,20.3,0,18.21l2.09-1.14.38-.2c3-1.64,6.7-3.67,11.55-3.67s8.56,2,11.55,3.67c2.53,1.38,4.53,2.48,6.9,2.48s4.36-1.1,6.89-2.48c3-1.64,6.71-3.67,11.55-3.67s8.57,2,11.56,3.67C65,18.25,67,19.35,69.36,19.35s4.37-1.1,6.9-2.48c3-1.64,6.71-3.67,11.55-3.67s8.57,2,11.55,3.67l.38.2,2.09,1.14Z"/><path class="cls-1" d="M99.68,9l-1-1.72H96.87V9H95.5V3.23h3c1.55,0,2.37.73,2.37,2.07a1.88,1.88,0,0,1-1,1.72l1.13,2ZM96.87,6.24h1.59c.69,0,1.08-.32,1.08-.93s-.39-.93-1.08-.93H96.87Z"/><path class="cls-1" d="M98,12.44a6.22,6.22,0,1,1,6.22-6.22A6.22,6.22,0,0,1,98,12.44ZM98,1.38a4.84,4.84,0,1,0,4.85,4.84A4.84,4.84,0,0,0,98,1.38Z"/></g></g></svg>