<svg xmlns="http://www.w3.org/2000/svg" viewBox="0 0 58.94 58.94">
    <defs>
        <style>.cls-1,.cls-2{fill:#003e2a;}.cls-2{fill-rule:evenodd;}</style>
    </defs>
    <g id="Layer_2" data-name="Layer 2">
        <g id="Layer_1-2" data-name="Layer 1">
            <path class="cls-1" d="M29.47,58.94A29.47,29.47,0,1,1,58.94,29.47,29.5,29.5,0,0,1,29.47,58.94Zm0-58.4A28.93,28.93,0,1,0,58.4,29.47,29,29,0,0,0,29.47.54Z" />
            <path class="cls-2" d="M34.6,37.32a4.09,4.09,0,0,1-2.53,3.34,6.28,6.28,0,0,1-2.7.46,8.81,8.81,0,0,1-3.69-.95,9.9,9.9,0,0,1-1.48-1c-.11-.1-.13-.16-.05-.27l.29-.43.31-.45a.21.21,0,0,1,.34,0l0,0,.07.06.09.07a7.19,7.19,0,0,0,4.1,1.57c2,0,3.46-.93,3.72-2.32s-.92-2.84-3.26-3.58a27.34,27.34,0,0,1-2.93-1.17,3.87,3.87,0,0,1-2.25-3.7c.17-2.11,2.13-3.68,4.6-3.69a8.23,8.23,0,0,1,3.28.67,9.16,9.16,0,0,1,1.27.7.23.23,0,0,1,.09.33c0,.08-.12.19-.26.42h0l-.24.39c-.08.12-.17.13-.31,0a6.86,6.86,0,0,0-3.78-1.17c-1.73,0-3,1.06-3.1,2.45s.92,2.19,3,2.89c4.15,1.34,5.74,2.9,5.44,5.37m-5.13-21.8c2.7,0,4.91,2.56,5,5.78h-10c.1-3.22,2.31-5.78,5-5.78m14,6.38a.6.6,0,0,0-.6-.6H36.37c-.16-4.24-3.19-7.63-6.9-7.63s-6.74,3.39-6.9,7.63h-6.5a.59.59,0,0,0-.59.6V22h0l.92,20.44s0,.11,0,.17v.08h0A2.76,2.76,0,0,0,19,45.26H39.73a2.86,2.86,0,0,0,2.71-2.65h0v-.17l1-20.52h0v0" />
        </g>
    </g>
</svg>