<svg xmlns="http://www.w3.org/2000/svg" viewBox="0 0 58.94 58.94">
    <defs>
        <style>.cls-1{fill:#003e2a;}</style>
    </defs>
    <g id="Layer_2" data-name="Layer 2">
        <g id="Layer_1-2" data-name="Layer 1">
            <path class="cls-1" d="M29.47,58.94A29.47,29.47,0,1,1,58.94,29.47,29.5,29.5,0,0,1,29.47,58.94Zm0-58.4A28.93,28.93,0,1,0,58.4,29.47,29,29,0,0,0,29.47.54Z" />
            <path class="cls-1" d="M45,21.63a4.07,4.07,0,0,0-2.86-2.89c-2.52-.68-12.65-.68-12.65-.68s-10.13,0-12.65.68A4.07,4.07,0,0,0,14,21.63a42.43,42.43,0,0,0-.68,7.84A42.43,42.43,0,0,0,14,37.31a4.07,4.07,0,0,0,2.86,2.89c2.52.68,12.65.68,12.65.68s10.13,0,12.65-.68A4.07,4.07,0,0,0,45,37.31a42.43,42.43,0,0,0,.68-7.84A42.43,42.43,0,0,0,45,21.63ZM26.16,34.28V24.66l8.46,4.81Z" />
        </g>
    </g>
</svg>